# xmcd
#
# Track frame offsets: 
#        150
#        17017
#        38354
#        56737
#        68996
#        87020
#        108491
#        133166
#        150334
#        161534
#        180084
#        206694
#        222772
#        238581
#        257810
#        276218
#        292841
#        308745
#        331376
#
# Disc length: 4654 seconds
#
# Revision: 1
# Processed by: cddbd v1.5.2PL0 Copyright (c) Steve Scherf et al.
# Submitted via: ExactAudioCopy v0.95b4
#
DISCID=fe122c13
DTITLE=Jerry Lee Lewis - The Session Recorded in London
DYEAR=1973
DGENRE=Rock and Roll
TTITLE0=Drinking Wine Spo-Dee-O-Dee
TTITLE1=Taking My Music to the Man
TTITLE2=Baby What You Want Me to Do?
TTITLE3=Bad Moon Rising
TTITLE4=Sea Cruise
TTITLE5=Jukebox
TTITLE6=No Headstone on My Grave
TTITLE7=Big Boss Man
TTITLE8=Pledging My Love
TTITLE9=Memphis
TTITLE10=Trouble in Mind
TTITLE11=Johnny B. Goode
TTITLE12=High School Confidential
TTITLE13=Early Morning Rain
TTITLE14=Whole Lot of Shakin' Goin' On
TTITLE15=Sixty Minute Man
TTITLE16=Movin' on Down the Line
TTITLE17=What'd I Say
TTITLE18=Rock and Roll Medley
EXTD=
EXTT0=
EXTT1=
EXTT2=
EXTT3=
EXTT4=
EXTT5=
EXTT6=
EXTT7=
EXTT8=
EXTT9=
EXTT10=
EXTT11=
EXTT12=
EXTT13=
EXTT14=
EXTT15=
EXTT16=
EXTT17=
EXTT18=
PLAYORDER=
